<svg xmlns="http://www.w3.org/2000/svg" viewBox="0 0 100 100">
  <defs>
    <linearGradient id="favicon-gradient" x1="0%" y1="0%" x2="100%" y2="100%">
      <stop offset="0%" stop-color="#10B981" />
      <stop offset="100%" stop-color="#047857" />
    </linearGradient>
    <linearGradient id="favicon-accent-gradient" x1="0%" y1="0%" x2="100%" y2="100%">
      <stop offset="0%" stop-color="#F59E0B" />
      <stop offset="100%" stop-color="#D97706" />
    </linearGradient>
  </defs>
  
  <!-- Circle background -->
  <circle cx="50" cy="50" r="45" fill="url(#favicon-gradient)" />
  
  <!-- Simplified but detailed leaf -->
  <path d="M30 35 Q35 25 45 25 Q55 25 65 30 Q70 40 65 50 Q60 60 50 65 Q40 65 30 60 Q25 50 25 40 Q25 35 30 35 Z" fill="#FFFFFF" />
  
  <!-- Leaf veins -->
  <path d="M40 35 Q50 30 60 35" stroke="#10B981" stroke-width="0.7" fill="none" />
  <path d="M35 40 Q50 35 65 40" stroke="#10B981" stroke-width="0.7" fill="none" />
  <path d="M35 50 Q50 45 65 50" stroke="#10B981" stroke-width="0.7" fill="none" />
  <path d="M40 55 Q50 50 60 55" stroke="#10B981" stroke-width="0.7" fill="none" />
  
  <!-- Grain symbol -->
  <path d="M45 50 L50 45 L55 50 L50 55 Z" fill="url(#favicon-accent-gradient)" />
</svg>