<svg xmlns="http://www.w3.org/2000/svg" viewBox="0 0 100 100">
  <defs>
    <linearGradient id="navbar-logo-gradient" x1="0%" y1="0%" x2="100%" y2="100%">
      <stop offset="0%" stop-color="#10B981" />
      <stop offset="100%" stop-color="#047857" />
    </linearGradient>
    <linearGradient id="navbar-accent-gradient" x1="0%" y1="0%" x2="100%" y2="100%">
      <stop offset="0%" stop-color="#F59E0B" />
      <stop offset="100%" stop-color="#D97706" />
    </linearGradient>
    <linearGradient id="navbar-highlight-gradient" x1="0%" y1="0%" x2="100%" y2="100%">
      <stop offset="0%" stop-color="#FDE68A" />
      <stop offset="100%" stop-color="#F59E0B" />
    </linearGradient>
  </defs>
  
  <!-- Modern circle background with subtle texture -->
  <circle cx="50" cy="50" r="45" fill="url(#navbar-logo-gradient)" />
  <circle cx="50" cy="50" r="45" fill="url(#navbar-highlight-gradient)" fill-opacity="0.15" />
  
  <!-- Detailed leaf (kale/spinach with veins) -->
  <path d="M30 35 Q35 25 45 25 Q55 25 65 30 Q70 40 65 50 Q60 60 50 65 Q40 65 30 60 Q25 50 25 40 Q25 35 30 35 Z" fill="#FFFFFF" />
  
  <!-- Leaf veins -->
  <path d="M45 30 Q50 25 55 30" stroke="#10B981" stroke-width="0.5" fill="none" />
  <path d="M40 35 Q50 30 60 35" stroke="#10B981" stroke-width="0.5" fill="none" />
  <path d="M35 40 Q50 35 65 40" stroke="#10B981" stroke-width="0.5" fill="none" />
  <path d="M30 45 Q50 40 70 45" stroke="#10B981" stroke-width="0.5" fill="none" />
  <path d="M35 50 Q50 45 65 50" stroke="#10B981" stroke-width="0.5" fill="none" />
  <path d="M40 55 Q50 50 60 55" stroke="#10B981" stroke-width="0.5" fill="none" />
  <path d="M45 60 Q50 55 55 60" stroke="#10B981" stroke-width="0.5" fill="none" />
  
  <!-- Detailed grain stalk -->
  <path d="M45 50 L50 45 L55 50 L50 55 Z" fill="url(#navbar-accent-gradient)" />
  <path d="M47 48 L50 45 L53 48 L50 51 Z" fill="#FFFFFF" />
  
  <!-- Additional grain details -->
  <circle cx="48" cy="47" r="0.5" fill="#FFFFFF" />
  <circle cx="52" cy="47" r="0.5" fill="#FFFFFF" />
  <circle cx="50" cy="52" r="0.5" fill="#FFFFFF" />
  
  <!-- Water droplet for hydration -->
  <path d="M50 65 Q52 68 50 70 Q48 68 50 65 Z" fill="#93C5FD" />
  <path d="M50 66 Q51 68 50 69 Q49 68 50 66 Z" fill="#BFDBFE" />
</svg>