<svg width="32" height="32" viewBox="0 0 32 32" xmlns="http://www.w3.org/2000/svg">
  <defs>
    <!-- Vibrant gradients -->
    <linearGradient id="petal1" x1="0%" y1="0%" x2="100%" y2="100%">
      <stop offset="0%" stop-color="#ff9a9e" />
      <stop offset="100%" stop-color="#fad0c4" />
    </linearGradient>
    <linearGradient id="petal2" x1="0%" y1="0%" x2="100%" y2="100%">
      <stop offset="0%" stop-color="#a1c4fd" />
      <stop offset="100%" stop-color="#c2e9fb" />
    </linearGradient>
    
    <!-- Central gradient -->
    <radialGradient id="center" cx="50%" cy="50%" r="50%">
      <stop offset="0%" stop-color="#ffecd2" />
      <stop offset="100%" stop-color="#fcb69f" />
    </radialGradient>
  </defs>
  
  <!-- Simplified colorful flower -->
  <path d="M16 8 Q 20 4, 24 8 Q 26 12, 24 16 Q 20 18, 16 16 Q 12 18, 8 16 Q 6 12, 8 8 Q 12 4, 16 8 Z" 
        fill="url(#petal1)" stroke="#ffffff" stroke-width="1"/>
  
  <path d="M16 8 Q 22 6, 26 10 Q 28 14, 24 18 Q 20 20, 16 19 Q 12 20, 8 18 Q 4 14, 6 10 Q 10 6, 16 8 Z" 
        fill="url(#petal2)" stroke="#ffffff" stroke-width="1" transform="rotate(90 16 16)"/>
  
  <!-- Central circle -->
  <circle cx="16" cy="16" r="5" fill="url(#center)" stroke="#ffffff" stroke-width="1"/>
  
  <!-- Inner symbol -->
  <path d="M16 12 
           L 18 15 
           L 20 16 
           L 18 17 
           L 16 19 
           L 14 17 
           L 12 16 
           L 14 15 
           Z" 
        fill="#ffffff" stroke="#fcb69f" stroke-width="1"/>
</svg>