<svg width="200" height="200" viewBox="0 0 200 200" xmlns="http://www.w3.org/2000/svg">
  <defs>
    <!-- Vibrant gradients for each petal -->
    <linearGradient id="petal1" x1="0%" y1="0%" x2="100%" y2="100%">
      <stop offset="0%" stop-color="#ff9a9e" />
      <stop offset="100%" stop-color="#fad0c4" />
    </linearGradient>
    <linearGradient id="petal2" x1="0%" y1="0%" x2="100%" y2="100%">
      <stop offset="0%" stop-color="#a1c4fd" />
      <stop offset="100%" stop-color="#c2e9fb" />
    </linearGradient>
    <linearGradient id="petal3" x1="0%" y1="0%" x2="100%" y2="100%">
      <stop offset="0%" stop-color="#d4fc79" />
      <stop offset="100%" stop-color="#96e6a1" />
    </linearGradient>
    <linearGradient id="petal4" x1="0%" y1="0%" x2="100%" y2="100%">
      <stop offset="0%" stop-color="#f6d365" />
      <stop offset="100%" stop-color="#fda085" />
    </linearGradient>
    <linearGradient id="petal5" x1="0%" y1="0%" x2="100%" y2="100%">
      <stop offset="0%" stop-color="#84fab0" />
      <stop offset="100%" stop-color="#8fd3f4" />
    </linearGradient>
    <linearGradient id="petal6" x1="0%" y1="0%" x2="100%" y2="100%">
      <stop offset="0%" stop-color="#c790f9" />
      <stop offset="100%" stop-color="#a18cd1" />
    </linearGradient>
    
    <!-- Central gradient -->
    <radialGradient id="center" cx="50%" cy="50%" r="50%">
      <stop offset="0%" stop-color="#ffecd2" />
      <stop offset="100%" stop-color="#fcb69f" />
    </radialGradient>
    
    <!-- Glow effect -->
    <filter id="glow" x="-50%" y="-50%" width="200%" height="200%">
      <feGaussianBlur stdDeviation="5" result="coloredBlur"/>
      <feMerge> 
        <feMergeNode in="coloredBlur"/>
        <feMergeNode in="SourceGraphic"/>
      </feMerge>
    </filter>
  </defs>
  
  <!-- Background glow circle -->
  <circle cx="100" cy="100" r="95" fill="#ffffff" opacity="0.3"/>
  
  <!-- Flower petals - vibrant and colorful -->
  <path d="M100 40 Q 120 20, 140 40 Q 150 60, 140 80 Q 120 90, 100 80 Q 80 90, 60 80 Q 50 60, 60 40 Q 80 20, 100 40 Z" 
        fill="url(#petal1)" stroke="#ffffff" stroke-width="2" filter="url(#glow)"/>
  
  <path d="M100 40 Q 125 25, 145 45 Q 155 70, 140 90 Q 120 105, 100 100 Q 80 105, 60 90 Q 45 70, 55 45 Q 75 25, 100 40 Z" 
        fill="url(#petal2)" stroke="#ffffff" stroke-width="2" filter="url(#glow)" transform="rotate(30 100 100)"/>
  
  <path d="M100 40 Q 130 30, 150 50 Q 160 80, 140 100 Q 120 120, 100 115 Q 80 120, 60 100 Q 40 80, 50 50 Q 70 30, 100 40 Z" 
        fill="url(#petal3)" stroke="#ffffff" stroke-width="2" filter="url(#glow)" transform="rotate(60 100 100)"/>
  
  <path d="M100 40 Q 135 35, 155 55 Q 165 90, 140 110 Q 120 130, 100 125 Q 80 130, 60 110 Q 35 90, 45 55 Q 65 35, 100 40 Z" 
        fill="url(#petal4)" stroke="#ffffff" stroke-width="2" filter="url(#glow)" transform="rotate(90 100 100)"/>
  
  <path d="M100 40 Q 140 40, 160 60 Q 170 100, 140 120 Q 120 140, 100 135 Q 80 140, 60 120 Q 30 100, 40 60 Q 60 40, 100 40 Z" 
        fill="url(#petal5)" stroke="#ffffff" stroke-width="2" filter="url(#glow)" transform="rotate(120 100 100)"/>
  
  <path d="M100 40 Q 145 45, 165 65 Q 175 110, 140 130 Q 120 150, 100 145 Q 80 150, 60 130 Q 25 110, 35 65 Q 55 45, 100 40 Z" 
        fill="url(#petal6)" stroke="#ffffff" stroke-width="2" filter="url(#glow)" transform="rotate(150 100 100)"/>
  
  <!-- Central circle with gradient -->
  <circle cx="100" cy="100" r="30" fill="url(#center)" stroke="#ffffff" stroke-width="3"/>
  
  <!-- Inner nutrition symbol -->
  <path d="M100 80 
           L 110 95 
           L 125 100 
           L 110 105 
           L 100 120 
           L 90 105 
           L 75 100 
           L 90 95 
           Z" 
        fill="#ffffff" stroke="#fcb69f" stroke-width="2"/>
  
  <!-- Sparkle elements -->
  <circle cx="85" cy="85" r="3" fill="#ffffff" opacity="0.9"/>
  <circle cx="115" cy="85" r="3" fill="#ffffff" opacity="0.9"/>
  <circle cx="85" cy="115" r="3" fill="#ffffff" opacity="0.9"/>
  <circle cx="115" cy="115" r="3" fill="#ffffff" opacity="0.9"/>
  <circle cx="100" cy="70" r="2" fill="#ffffff" opacity="0.8"/>
  <circle cx="100" cy="130" r="2" fill="#ffffff" opacity="0.8"/>
  <circle cx="70" cy="100" r="2" fill="#ffffff" opacity="0.8"/>
  <circle cx="130" cy="100" r="2" fill="#ffffff" opacity="0.8"/>
  
  <!-- Central highlight -->
  <circle cx="100" cy="100" r="8" fill="#ffffff" opacity="0.7"/>
</svg>