<svg xmlns="http://www.w3.org/2000/svg" viewBox="0 0 100 100">
  <defs>
    <linearGradient id="fever-gradient" x1="0%" y1="0%" x2="0%" y2="100%">
      <stop offset="0%" stop-color="#F87171" />
      <stop offset="100%" stop-color="#B91C1C" />
    </linearGradient>
    <radialGradient id="heat-gradient" cx="50%" cy="50%" r="50%">
      <stop offset="0%" stop-color="#FECACA" />
      <stop offset="100%" stop-color="#FECACA" stop-opacity="0" />
    </radialGradient>
  </defs>
  
  <!-- Thermometer -->
  <rect x="45" y="20" width="10" height="60" fill="url(#fever-gradient)" rx="5" />
  <circle cx="50" cy="85" r="10" fill="url(#fever-gradient)" />
  
  <!-- Temperature indicator -->
  <rect x="48" y="30" width="4" height="45" fill="#FFFFFF" rx="2" />
  
  <!-- Heat waves -->
  <path d="M30 30 Q35 25 40 30 Q45 35 50 30 Q55 25 60 30 Q65 35 70 30" fill="none" stroke="#F87171" stroke-width="1.5" />
  <path d="M30 50 Q35 45 40 50 Q45 55 50 50 Q55 45 60 50 Q65 55 70 50" fill="none" stroke="#F87171" stroke-width="1.5" />
  <path d="M30 70 Q35 65 40 70 Q45 75 50 70 Q55 65 60 70 Q65 75 70 70" fill="none" stroke="#F87171" stroke-width="1.5" />
</svg>